<svg width="35" height="35" viewBox="0 0 35 35" fill="none" xmlns="http://www.w3.org/2000/svg">
<g clip-path="url(#clip0_1_894)">
<path d="M32.375 35H2.625C1.17775 35 0 33.8223 0 32.375V2.625C0 1.17775 1.17775 0 2.625 0H32.375C33.8223 0 35 1.17775 35 2.625V32.375C35 33.8223 33.8223 35 32.375 35ZM2.625 1.16667C1.82117 1.16667 1.16667 1.82117 1.16667 2.625V32.375C1.16667 33.1788 1.82117 33.8333 2.625 33.8333H32.375C33.1794 33.8333 33.8333 33.1788 33.8333 32.375V2.625C33.8333 1.82117 33.1788 1.16667 32.375 1.16667H2.625Z" fill="white"/>
<path d="M5.25004 5.83331H2.91671C2.59471 5.83331 2.33337 5.57198 2.33337 5.24998V2.91665C2.33337 2.59465 2.59471 2.33331 2.91671 2.33331H5.25004C5.57204 2.33331 5.83337 2.59465 5.83337 2.91665V5.24998C5.83337 5.57198 5.57204 5.83331 5.25004 5.83331ZM3.50004 4.66665H4.66671V3.49998H3.50004V4.66665Z" fill="white"/>
<path d="M9.91667 5.83331H7.58333C7.26133 5.83331 7 5.57198 7 5.24998V2.91665C7 2.59465 7.26133 2.33331 7.58333 2.33331H9.91667C10.2387 2.33331 10.5 2.59465 10.5 2.91665V5.24998C10.5 5.57198 10.2387 5.83331 9.91667 5.83331ZM8.16667 4.66665H9.33333V3.49998H8.16667V4.66665Z" fill="white"/>
<path d="M14.5833 5.83331H12.25C11.928 5.83331 11.6666 5.57198 11.6666 5.24998V2.91665C11.6666 2.59465 11.928 2.33331 12.25 2.33331H14.5833C14.9053 2.33331 15.1666 2.59465 15.1666 2.91665V5.24998C15.1666 5.57198 14.9053 5.83331 14.5833 5.83331ZM12.8333 4.66665H14V3.49998H12.8333V4.66665Z" fill="white"/>
<path d="M34.4167 8.16667H0.583333C0.261333 8.16667 0 7.90533 0 7.58333V2.625C0 1.17775 1.17775 0 2.625 0H32.375C33.8223 0 35 1.17775 35 2.625V7.58333C35 7.90533 34.7387 8.16667 34.4167 8.16667ZM1.16667 7H33.8333V2.625C33.8333 1.82117 33.1788 1.16667 32.375 1.16667H2.625C1.82117 1.16667 1.16667 1.82117 1.16667 2.625V7Z" fill="white"/>
<path d="M15.75 22.1666H2.91671C2.59471 22.1666 2.33337 21.9053 2.33337 21.5833V9.91665C2.33337 9.59465 2.59471 9.33331 2.91671 9.33331H15.75C16.072 9.33331 16.3334 9.59465 16.3334 9.91665V21.5833C16.3334 21.9053 16.072 22.1666 15.75 22.1666ZM3.50004 21H15.1667V10.5H3.50004V21Z" fill="white"/>
<path d="M9.33333 22.1667C9.184 22.1667 9.03467 22.1095 8.92092 21.9958L5.83334 18.9082L3.32909 21.4124C3.101 21.6405 2.73234 21.6405 2.50425 21.4124C2.27617 21.1844 2.27617 20.8157 2.50425 20.5876L5.42092 17.6709C5.649 17.4429 6.01767 17.4429 6.24575 17.6709L9.74575 21.1709C9.97384 21.399 9.97384 21.7677 9.74575 21.9958C9.632 22.1095 9.48267 22.1667 9.33333 22.1667Z" fill="white"/>
<path d="M7.00002 16.3334C5.71319 16.3334 4.66669 15.2869 4.66669 14C4.66669 12.7132 5.71319 11.6667 7.00002 11.6667C8.28686 11.6667 9.33336 12.7132 9.33336 14C9.33336 15.2869 8.28686 16.3334 7.00002 16.3334ZM7.00002 12.8334C6.3566 12.8334 5.83335 13.3566 5.83335 14C5.83335 14.6434 6.3566 15.1667 7.00002 15.1667C7.64344 15.1667 8.16669 14.6434 8.16669 14C8.16669 13.3566 7.64344 12.8334 7.00002 12.8334Z" fill="white"/>
<path d="M15.75 21C15.6007 21 15.4513 20.9429 15.3376 20.8291L11.6847 17.1763L8.47291 20.6774C8.25533 20.9154 7.88666 20.9312 7.64866 20.713C7.41125 20.4954 7.39491 20.1262 7.61308 19.8888L11.2362 15.939C11.3435 15.8218 11.4946 15.7535 11.6532 15.75C11.8142 15.743 11.9659 15.8084 12.0785 15.9209L16.1618 20.0043C16.3899 20.2324 16.3899 20.601 16.1618 20.8291C16.0487 20.9429 15.8993 21 15.75 21Z" fill="white"/>
<path d="M32.0833 32.6666H19.25C18.928 32.6666 18.6666 32.4053 18.6666 32.0833V20.4166C18.6666 20.0946 18.928 19.8333 19.25 19.8333H32.0833C32.4053 19.8333 32.6666 20.0946 32.6666 20.4166V32.0833C32.6666 32.4053 32.4053 32.6666 32.0833 32.6666ZM19.8333 31.5H31.5V21H19.8333V31.5Z" fill="white"/>
<path d="M25.6666 32.6667C25.5173 32.6667 25.368 32.6095 25.2542 32.4958L22.1667 29.4082L19.6624 31.9124C19.4343 32.1405 19.0656 32.1405 18.8376 31.9124C18.6095 31.6844 18.6095 31.3157 18.8376 31.0876L21.7542 28.1709C21.9823 27.9429 22.351 27.9429 22.5791 28.1709L26.0791 31.6709C26.3072 31.899 26.3072 32.2677 26.0791 32.4958C25.9653 32.6095 25.816 32.6667 25.6666 32.6667Z" fill="white"/>
<path d="M23.3333 26.8334C22.0465 26.8334 21 25.7869 21 24.5C21 23.2132 22.0465 22.1667 23.3333 22.1667C24.6202 22.1667 25.6667 23.2132 25.6667 24.5C25.6667 25.7869 24.6202 26.8334 23.3333 26.8334ZM23.3333 23.3334C22.6899 23.3334 22.1667 23.8566 22.1667 24.5C22.1667 25.1434 22.6899 25.6667 23.3333 25.6667C23.9767 25.6667 24.5 25.1434 24.5 24.5C24.5 23.8566 23.9767 23.3334 23.3333 23.3334Z" fill="white"/>
<path d="M32.0834 31.5C31.934 31.5 31.7847 31.4429 31.671 31.3291L28.0181 27.6763L24.8063 31.1774C24.5887 31.4154 24.22 31.4312 23.982 31.213C23.7446 30.9954 23.7283 30.6262 23.9465 30.3888L27.5695 26.439C27.6769 26.3218 27.828 26.2535 27.9866 26.25C28.1424 26.2436 28.2993 26.3083 28.4119 26.4209L32.4952 30.5043C32.7233 30.7323 32.7233 31.101 32.4952 31.3291C32.382 31.4429 32.2327 31.5 32.0834 31.5Z" fill="white"/>
<path d="M28.5833 12.8334H19.25C18.928 12.8334 18.6666 12.572 18.6666 12.25C18.6666 11.928 18.928 11.6667 19.25 11.6667H28.5833C28.9053 11.6667 29.1666 11.928 29.1666 12.25C29.1666 12.572 28.9053 12.8334 28.5833 12.8334Z" fill="white"/>
<path d="M32.0833 12.8334H30.9166C30.5946 12.8334 30.3333 12.572 30.3333 12.25C30.3333 11.928 30.5946 11.6667 30.9166 11.6667H32.0833C32.4053 11.6667 32.6667 11.928 32.6667 12.25C32.6667 12.572 32.4053 12.8334 32.0833 12.8334Z" fill="white"/>
<path d="M28.5833 17.5H19.25C18.928 17.5 18.6666 17.2386 18.6666 16.9166C18.6666 16.5946 18.928 16.3333 19.25 16.3333H28.5833C28.9053 16.3333 29.1666 16.5946 29.1666 16.9166C29.1666 17.2386 28.9053 17.5 28.5833 17.5Z" fill="white"/>
<path d="M32.0833 17.5H30.9166C30.5946 17.5 30.3333 17.2386 30.3333 16.9166C30.3333 16.5946 30.5946 16.3333 30.9166 16.3333H32.0833C32.4053 16.3333 32.6667 16.5946 32.6667 16.9166C32.6667 17.2386 32.4053 17.5 32.0833 17.5Z" fill="white"/>
<path d="M32.0834 15.1667H22.75C22.428 15.1667 22.1667 14.9053 22.1667 14.5833C22.1667 14.2613 22.428 14 22.75 14H32.0834C32.4053 14 32.6667 14.2613 32.6667 14.5833C32.6667 14.9053 32.4053 15.1667 32.0834 15.1667Z" fill="white"/>
<path d="M20.4166 15.1667H19.25C18.928 15.1667 18.6666 14.9053 18.6666 14.5833C18.6666 14.2613 18.928 14 19.25 14H20.4166C20.7386 14 21 14.2613 21 14.5833C21 14.9053 20.7386 15.1667 20.4166 15.1667Z" fill="white"/>
<path d="M12.25 25.6667H2.91671C2.59471 25.6667 2.33337 25.4053 2.33337 25.0833C2.33337 24.7613 2.59471 24.5 2.91671 24.5H12.25C12.572 24.5 12.8334 24.7613 12.8334 25.0833C12.8334 25.4053 12.572 25.6667 12.25 25.6667Z" fill="white"/>
<path d="M15.7501 25.6667H14.5834C14.2614 25.6667 14.0001 25.4053 14.0001 25.0833C14.0001 24.7613 14.2614 24.5 14.5834 24.5H15.7501C16.0721 24.5 16.3334 24.7613 16.3334 25.0833C16.3334 25.4053 16.0721 25.6667 15.7501 25.6667Z" fill="white"/>
<path d="M12.25 30.3333H2.91671C2.59471 30.3333 2.33337 30.072 2.33337 29.75C2.33337 29.428 2.59471 29.1667 2.91671 29.1667H12.25C12.572 29.1667 12.8334 29.428 12.8334 29.75C12.8334 30.072 12.572 30.3333 12.25 30.3333Z" fill="white"/>
<path d="M15.7501 30.3333H14.5834C14.2614 30.3333 14.0001 30.072 14.0001 29.75C14.0001 29.428 14.2614 29.1667 14.5834 29.1667H15.7501C16.0721 29.1667 16.3334 29.428 16.3334 29.75C16.3334 30.072 16.0721 30.3333 15.7501 30.3333Z" fill="white"/>
<path d="M15.75 28H6.41665C6.09465 28 5.83331 27.7386 5.83331 27.4166C5.83331 27.0946 6.09465 26.8333 6.41665 26.8333H15.75C16.072 26.8333 16.3333 27.0946 16.3333 27.4166C16.3333 27.7386 16.072 28 15.75 28Z" fill="white"/>
<path d="M4.08337 28H2.91671C2.59471 28 2.33337 27.7386 2.33337 27.4166C2.33337 27.0946 2.59471 26.8333 2.91671 26.8333H4.08337C4.40538 26.8333 4.66671 27.0946 4.66671 27.4166C4.66671 27.7386 4.40538 28 4.08337 28Z" fill="white"/>
</g>
<defs>
<clipPath id="clip0_1_894">
<rect width="35" height="35" fill="white"/>
</clipPath>
</defs>
</svg>
