<svg width="15" height="16" viewBox="0 0 15 16" fill="none" xmlns="http://www.w3.org/2000/svg">
<path fill-rule="evenodd" clip-rule="evenodd" d="M5.5625 1.62967H9.41875C11.1125 1.62967 12.4812 2.31404 12.5 4.05376V13.7629C12.5 13.8717 12.475 13.9804 12.425 14.0763C12.3438 14.2298 12.2063 14.345 12.0375 14.3961C11.875 14.4473 11.6938 14.4217 11.5437 14.3322L7.49375 12.2599L3.4375 14.3322C3.34438 14.3827 3.2375 14.4153 3.13125 14.4153C2.78125 14.4153 2.5 14.1211 2.5 13.7629V4.05376C2.5 2.31404 3.875 1.62967 5.5625 1.62967ZM5.1375 6.50344H9.84375C10.1125 6.50344 10.3312 6.27894 10.3312 5.99815C10.3312 5.71673 10.1125 5.49287 9.84375 5.49287H5.1375C4.86875 5.49287 4.65 5.71673 4.65 5.99815C4.65 6.27894 4.86875 6.50344 5.1375 6.50344Z" fill="white"/>
</svg>
