<svg width="18" height="18" viewBox="0 0 18 18" fill="none" xmlns="http://www.w3.org/2000/svg">
<path d="M14.4937 7.10115C14.4937 7.10115 14.0865 12.1524 13.8502 14.2802C13.7377 15.2964 13.11 15.8919 12.0817 15.9107C10.125 15.9459 8.16596 15.9482 6.20996 15.9069C5.22071 15.8867 4.60346 15.2837 4.49321 14.2854C4.25546 12.1389 3.85046 7.10115 3.85046 7.10115" stroke="#ADADAD" stroke-width="1.5" stroke-linecap="round" stroke-linejoin="round"/>
<path d="M15.5311 4.67978H2.81262" stroke="#ADADAD" stroke-width="1.5" stroke-linecap="round" stroke-linejoin="round"/>
<path d="M13.0804 4.67978C12.4917 4.67978 11.9847 4.26353 11.8692 3.68678L11.6869 2.77478C11.5744 2.35403 11.1934 2.06303 10.7592 2.06303H7.58443C7.15018 2.06303 6.76918 2.35403 6.65668 2.77478L6.47443 3.68678C6.35893 4.26353 5.85193 4.67978 5.26318 4.67978" stroke="#ADADAD" stroke-width="1.5" stroke-linecap="round" stroke-linejoin="round"/>
</svg>
