<svg width="40" height="40" viewBox="0 0 40 40" fill="none" xmlns="http://www.w3.org/2000/svg">
<path d="M19.9864 22.2038C15.1113 22.0449 13.9421 17.8708 13.6918 16.5232C13.2225 16.4145 12.8043 16.1489 12.5064 15.7703C12.1663 15.3016 12.0086 14.7252 12.0626 14.1486C12.024 13.838 12.051 13.5227 12.1419 13.2232C12.2328 12.9236 12.3855 12.6465 12.5902 12.4097C12.7058 12.2913 12.8386 12.191 12.9843 12.1124C12.0782 10.6496 11.6319 8.94845 11.7032 7.22918C12.2675 3.19675 15.5172 2.80432 16.5351 2.78161C17.0035 2.23676 17.5891 1.80491 18.248 1.51837C19.4824 1.02049 20.8466 0.944478 22.1286 1.30215C24.6486 1.95999 26.3291 3.22161 27.1264 5.05242C28.2616 7.65459 27.2659 10.6497 26.694 11.9946C26.9121 12.0655 27.1131 12.1809 27.2843 12.3335C27.5172 12.57 27.6927 12.8567 27.7973 13.1717C27.9018 13.4867 27.9327 13.8215 27.8875 14.1503C27.9421 14.7267 27.7845 15.3033 27.4443 15.7719C27.146 16.1504 26.7277 16.416 26.2583 16.5249C26.008 17.8708 24.8416 22.0449 19.9864 22.2038ZM13.8875 12.9767C13.6958 12.9678 13.5083 13.0346 13.3653 13.1627C13.2664 13.3013 13.1959 13.4581 13.158 13.6241C13.12 13.7901 13.1154 13.9619 13.1443 14.1297C13.1465 14.1658 13.1453 14.202 13.1405 14.2378C13.1111 14.5481 13.1912 14.8588 13.367 15.1162C13.4766 15.2386 13.6095 15.338 13.7581 15.4083C13.9066 15.4787 14.0677 15.5187 14.2318 15.5259C14.3554 15.5405 14.4702 15.5974 14.5568 15.6868C14.6433 15.7762 14.6964 15.8927 14.707 16.0167C14.7248 16.2178 15.2043 20.9665 19.9875 21.1232C24.7443 20.9665 25.2259 16.2178 25.2437 16.0157C25.2546 15.8919 25.3077 15.7756 25.3943 15.6864C25.4808 15.5972 25.5954 15.5405 25.7189 15.5259C25.8831 15.5187 26.0441 15.4788 26.1927 15.4084C26.3412 15.338 26.4742 15.2387 26.5837 15.1162C26.7602 14.8576 26.8404 14.5452 26.8102 14.2335C26.8057 14.1987 26.8044 14.1636 26.8064 14.1286C26.8356 13.9553 26.8291 13.7779 26.7872 13.6072C26.7452 13.4365 26.6688 13.2762 26.5626 13.1362C26.3938 13.0119 26.1837 12.9569 25.9756 12.9827C25.8756 13.0004 25.7726 12.9896 25.6784 12.9515C25.5842 12.9134 25.5027 12.8495 25.4432 12.7672C25.3836 12.6849 25.3485 12.5874 25.3418 12.4861C25.3351 12.3847 25.3572 12.2835 25.4053 12.194C25.4253 12.1562 27.4053 8.39837 26.1329 5.47783C25.474 3.96864 24.0356 2.91513 21.8567 2.34648C20.8094 2.05011 19.6937 2.1071 18.6821 2.50864C18.1066 2.75659 17.605 3.14911 17.2259 3.6481C17.1713 3.72233 17.0985 3.78123 17.0145 3.8191C16.9305 3.85698 16.8382 3.87255 16.7464 3.86432C16.6064 3.85296 13.2967 3.63891 12.7778 7.33891C12.7778 7.33891 12.628 10.2822 14.3329 12.0659C14.4072 12.1436 14.4567 12.2417 14.475 12.3476C14.4932 12.4535 14.4796 12.5624 14.4356 12.6605C14.3951 12.7611 14.3237 12.8463 14.2317 12.9037C14.1397 12.9611 14.0319 12.9878 13.9237 12.98L13.8875 12.9767Z" fill="white"/>
<path d="M25.8817 12.9897C25.7422 12.9899 25.608 12.936 25.5073 12.8395C25.4065 12.743 25.347 12.6113 25.3411 12.4719C25.3347 12.3319 25.1671 9.06648 22.7293 8.75243C21.6142 8.89404 20.482 8.80575 19.4024 8.49302C18.3228 8.18028 17.3187 7.64972 16.452 6.93405C15.7628 7.45243 14.1747 9.02811 14.4801 12.3886C14.4841 12.5262 14.4355 12.6601 14.3442 12.7631C14.2529 12.8661 14.1258 12.9303 13.9888 12.9428C13.8517 12.9553 13.7151 12.915 13.6067 12.8302C13.4983 12.7454 13.4263 12.6225 13.4055 12.4865C12.9574 7.55621 16.1233 5.84486 16.2579 5.77459C16.3581 5.7223 16.4722 5.70273 16.584 5.71863C16.6959 5.73454 16.8 5.78511 16.8817 5.86324C17.6521 6.56107 18.5642 7.08428 19.5555 7.39709C20.5468 7.7099 21.594 7.80493 22.6255 7.67567C22.675 7.66767 22.7253 7.66585 22.7752 7.67027C25.5233 7.95621 26.3628 10.9086 26.4222 12.427C26.4278 12.5701 26.3764 12.7094 26.2793 12.8146C26.1822 12.9198 26.0474 12.9822 25.9044 12.9881L25.8817 12.9897Z" fill="white"/>
<path d="M35.1833 38.9189H4.81679C4.67343 38.9189 4.53594 38.862 4.43457 38.7606C4.3332 38.6592 4.27625 38.5218 4.27625 38.3784V32.3524C4.28011 30.4479 5.03911 28.6226 6.3868 27.2768C7.73449 25.9311 9.56087 25.1747 11.4654 25.1735H12.5033C12.6466 25.1735 12.7841 25.2305 12.8855 25.3318C12.9869 25.4332 13.0438 25.5707 13.0438 25.7141C13.0438 25.8574 12.9869 25.9949 12.8855 26.0963C12.7841 26.1977 12.6466 26.2546 12.5033 26.2546H11.4654C9.8475 26.2555 8.29593 26.8979 7.15092 28.0409C6.00591 29.184 5.3609 30.7345 5.35733 32.3524V37.8378H34.6427V32.3524C34.6409 30.7358 33.9978 29.1858 32.8547 28.0427C31.7115 26.8995 30.1616 26.2565 28.5449 26.2546H27.4325C27.2891 26.2546 27.1516 26.1977 27.0502 26.0963C26.9489 25.9949 26.8919 25.8574 26.8919 25.7141C26.8919 25.5707 26.9489 25.4332 27.0502 25.3318C27.1516 25.2305 27.2891 25.1735 27.4325 25.1735H28.5449C30.448 25.1762 32.2724 25.9335 33.6182 27.2792C34.9639 28.6249 35.7211 30.4493 35.7238 32.3524V38.3784C35.7238 38.5218 35.6669 38.6592 35.5655 38.7606C35.4641 38.862 35.3266 38.9189 35.1833 38.9189Z" fill="white"/>
<path d="M21.8065 38.9189C21.7287 38.9189 21.6518 38.9022 21.5811 38.8697C21.5104 38.8373 21.4475 38.79 21.3967 38.731C21.346 38.672 21.3085 38.6028 21.287 38.5281C21.2655 38.4533 21.2603 38.3748 21.2719 38.2978L23.4595 23.8205C23.4711 23.7439 23.499 23.6707 23.5413 23.6059C23.5837 23.541 23.6395 23.486 23.7049 23.4446C23.7704 23.4032 23.844 23.3763 23.9207 23.3658C23.9975 23.3553 24.0756 23.3615 24.1497 23.3838L27.9249 24.5216C28.0001 24.5443 28.0694 24.5831 28.1281 24.6353C28.1867 24.6874 28.2333 24.7518 28.2646 24.8238C28.2959 24.8958 28.3111 24.9738 28.3092 25.0523C28.3073 25.1308 28.2883 25.208 28.2535 25.2784L26.753 28.2892L27.6233 29.2659C27.7004 29.3531 27.7473 29.4629 27.757 29.5789C27.7668 29.6949 27.7388 29.8109 27.6773 29.9097L22.266 38.6627C22.2175 38.741 22.1499 38.8056 22.0695 38.8505C21.9891 38.8953 21.8986 38.9189 21.8065 38.9189ZM24.4357 24.5989L22.7357 35.8492L26.5481 29.687L25.7033 28.7384C25.6314 28.6578 25.5853 28.5575 25.5709 28.4505C25.5566 28.3434 25.5746 28.2345 25.6227 28.1378L27 25.3735L24.4357 24.5989Z" fill="white"/>
<path d="M18.1314 38.9189C18.0392 38.919 17.9486 38.8954 17.8681 38.8506C17.7875 38.8058 17.7198 38.7411 17.6714 38.6627L12.2584 29.9113C12.1969 29.8125 12.1689 29.6965 12.1787 29.5805C12.1884 29.4645 12.2353 29.3547 12.3124 29.2676L13.1827 28.2908L11.6822 25.28C11.6474 25.2096 11.6284 25.1324 11.6265 25.0539C11.6246 24.9754 11.6398 24.8975 11.6711 24.8254C11.7024 24.7534 11.749 24.6891 11.8076 24.6369C11.8663 24.5847 11.9356 24.5459 12.0108 24.5232L15.786 23.3854C15.8601 23.3632 15.9381 23.3571 16.0148 23.3676C16.0915 23.3782 16.165 23.4051 16.2304 23.4465C16.2958 23.4879 16.3516 23.5428 16.3939 23.6077C16.4362 23.6725 16.4641 23.7456 16.4757 23.8222L18.6643 38.2994C18.6756 38.3761 18.6703 38.4543 18.6488 38.5288C18.6272 38.6032 18.5899 38.6722 18.5393 38.7309C18.4888 38.7897 18.4262 38.8369 18.3558 38.8693C18.2854 38.9017 18.2089 38.9187 18.1314 38.9189ZM13.3897 29.6854L17.2022 35.8476L15.5022 24.5989L12.9378 25.3719L14.3146 28.1362C14.3628 28.2328 14.3809 28.3417 14.3666 28.4487C14.3524 28.5558 14.3064 28.6561 14.2346 28.7367L13.3897 29.6854Z" fill="white"/>
<path d="M20.0092 28.8405C18.8405 28.8397 17.6728 28.7689 16.5125 28.6286C16.4405 28.622 16.3706 28.6011 16.3069 28.567C16.2432 28.5329 16.1869 28.4864 16.1415 28.4303C16.0961 28.3741 16.0623 28.3094 16.0423 28.2399C16.0224 28.1705 16.0165 28.0977 16.0251 28.026C16.0337 27.9543 16.0566 27.885 16.0924 27.8222C16.1283 27.7595 16.1763 27.7046 16.2338 27.6607C16.2912 27.6169 16.3568 27.585 16.4268 27.5669C16.4968 27.5489 16.5696 27.5451 16.6411 27.5557C18.8503 27.8273 21.0844 27.8273 23.2936 27.5557C23.4344 27.5404 23.5757 27.5811 23.6869 27.669C23.798 27.7569 23.8702 27.8849 23.888 28.0255C23.9057 28.1661 23.8675 28.308 23.7816 28.4207C23.6957 28.5334 23.569 28.6079 23.4287 28.6281C22.2944 28.7704 21.1524 28.8414 20.0092 28.8405Z" fill="white"/>
<path d="M23.9951 24.4416C23.911 24.4413 23.828 24.4213 23.753 24.3833C23.6779 24.3453 23.6127 24.2903 23.5627 24.2227C22.7594 23.1367 22.614 20.9843 22.6005 20.7427C22.5922 20.5996 22.6411 20.4591 22.7364 20.3521C22.8317 20.245 22.9656 20.1802 23.1086 20.1719C23.2513 20.1652 23.3909 20.2146 23.4976 20.3096C23.6043 20.4045 23.6696 20.5375 23.6794 20.68C23.7124 21.2486 23.9124 22.8784 24.4313 23.58C24.4906 23.6603 24.5265 23.7555 24.535 23.8549C24.5436 23.9544 24.5244 24.0543 24.4796 24.1435C24.4348 24.2328 24.3662 24.3078 24.2813 24.3604C24.1965 24.4131 24.0987 24.4411 23.9989 24.4416H23.9951Z" fill="white"/>
<path d="M15.9427 24.4416C15.8428 24.4412 15.7451 24.4131 15.6602 24.3605C15.5754 24.3079 15.5068 24.2328 15.462 24.1436C15.4172 24.0543 15.398 23.9544 15.4065 23.855C15.415 23.7555 15.4509 23.6603 15.5102 23.58C16.0302 22.8773 16.2297 21.2481 16.2627 20.68C16.2668 20.609 16.2848 20.5396 16.3158 20.4756C16.3468 20.4115 16.3901 20.3543 16.4432 20.307C16.4963 20.2597 16.5582 20.2233 16.6253 20.2C16.6925 20.1766 16.7636 20.1667 16.8346 20.1708C16.9055 20.1749 16.975 20.193 17.039 20.224C17.103 20.2549 17.1603 20.2982 17.2076 20.3513C17.2549 20.4044 17.2912 20.4663 17.3146 20.5335C17.338 20.6006 17.3479 20.6717 17.3438 20.7427C17.3302 20.9843 17.1816 23.1368 16.3816 24.2227C16.3309 24.2912 16.2647 24.3468 16.1884 24.3848C16.1121 24.4229 16.0279 24.4423 15.9427 24.4416Z" fill="white"/>
<path d="M30.8946 31.3427C30.7539 31.3428 30.6188 31.288 30.5178 31.19C30.4169 31.092 30.3582 30.9585 30.3541 30.8179C30.253 27.2979 28.9146 26.1903 28.9017 26.1795C28.79 26.0908 28.7175 25.9618 28.7 25.8203C28.6824 25.6788 28.721 25.536 28.8076 25.4227C28.8936 25.3103 29.0204 25.2364 29.1606 25.2169C29.3008 25.1975 29.4429 25.2342 29.5562 25.3189C29.6276 25.373 31.3168 26.6849 31.4352 30.7865C31.4392 30.9297 31.3863 31.0687 31.288 31.1728C31.1897 31.277 31.054 31.3379 30.9108 31.3422L30.8946 31.3427Z" fill="white"/>
<path d="M30.8973 34.5341C30.4747 34.5342 30.0615 34.4089 29.71 34.1742C29.3586 33.9395 29.0846 33.6058 28.9228 33.2154C28.761 32.825 28.7186 32.3953 28.801 31.9808C28.8834 31.5663 29.0869 31.1855 29.3857 30.8866C29.6845 30.5877 30.0652 30.3841 30.4797 30.3017C30.8942 30.2192 31.3239 30.2614 31.7143 30.4232C32.1048 30.5849 32.4386 30.8587 32.6734 31.2101C32.9082 31.5615 33.0335 31.9747 33.0335 32.3973C33.0329 32.9637 32.8077 33.5068 32.4072 33.9074C32.0068 34.308 31.4637 34.5334 30.8973 34.5341ZM30.8973 31.3416C30.6885 31.3415 30.4843 31.4034 30.3107 31.5193C30.137 31.6352 30.0016 31.8001 29.9216 31.993C29.8416 32.1858 29.8206 32.3981 29.8613 32.6029C29.902 32.8078 30.0025 32.9959 30.1501 33.1436C30.2977 33.2913 30.4858 33.3919 30.6906 33.4327C30.8954 33.4734 31.1077 33.4526 31.3006 33.3727C31.4936 33.2928 31.6585 33.1575 31.7745 32.9839C31.8905 32.8103 31.9524 32.6061 31.9524 32.3973C31.9522 32.1175 31.8409 31.8492 31.6431 31.6513C31.4453 31.4534 31.1771 31.3421 30.8973 31.3416Z" fill="white"/>
<path d="M8.69295 31.3427C8.556 31.3431 8.42402 31.2914 8.32368 31.1982C8.22335 31.105 8.16213 30.9772 8.15241 30.8406C7.85781 26.6919 10.1438 25.366 10.2411 25.3114C10.3659 25.2409 10.5137 25.2229 10.6518 25.2614C10.7899 25.2999 10.9071 25.3916 10.9775 25.5165C11.048 25.6414 11.066 25.7891 11.0275 25.9272C10.989 26.0653 10.8973 26.1825 10.7724 26.253C10.6902 26.3016 8.98863 27.3519 9.23025 30.7643C9.24035 30.9073 9.19324 31.0485 9.09927 31.1568C9.0053 31.265 8.87217 31.3315 8.72917 31.3416L8.69295 31.3427Z" fill="white"/>
<path d="M7.59944 35.6708C7.5158 35.6712 7.43321 35.6522 7.35817 35.6152C7.28314 35.5783 7.2177 35.5244 7.16701 35.4579C6.90315 35.1113 6.70878 34.7171 6.59458 34.2968C6.34365 33.4781 6.42597 32.5935 6.82366 31.8352C7.22134 31.0769 7.90223 30.5061 8.71836 30.2471C9.10547 30.1382 9.51039 30.1076 9.90946 30.1569C10.3085 30.2063 10.6938 30.3347 11.0427 30.5346C11.6542 30.8879 12.1432 31.4194 12.4446 32.058C12.746 32.6967 12.8452 33.4121 12.7292 34.1087C12.7057 34.2501 12.6269 34.3764 12.5103 34.4598C12.3937 34.5431 12.2487 34.5768 12.1073 34.5533C11.9659 34.5298 11.8396 34.451 11.7562 34.3344C11.6728 34.2178 11.6392 34.0728 11.6627 33.9314C11.742 33.4541 11.6746 32.9639 11.4694 32.5258C11.2643 32.0876 10.9309 31.722 10.5135 31.4773C10.2884 31.3474 10.0397 31.2636 9.78189 31.2308C9.52407 31.198 9.2623 31.217 9.01188 31.2865C8.47024 31.4677 8.02187 31.8551 7.76403 32.3647C7.50619 32.8743 7.45968 33.465 7.63458 34.0087C7.7128 34.2964 7.84607 34.5663 8.02701 34.8033C8.08788 34.8834 8.12519 34.9789 8.13473 35.0791C8.14426 35.1792 8.12566 35.2801 8.081 35.3702C8.03634 35.4604 7.9674 35.5363 7.88194 35.5894C7.79648 35.6425 7.6979 35.6707 7.59728 35.6708H7.59944Z" fill="white"/>
<path d="M12.2033 34.5616C12.1822 34.5616 12.1606 34.5616 12.1389 34.5584L11.5298 34.4865C11.4592 34.4781 11.391 34.4559 11.3291 34.4212C11.2671 34.3864 11.2126 34.3399 11.1687 34.2841C11.1248 34.2283 11.0922 34.1644 11.073 34.096C11.0537 34.0277 11.0481 33.9562 11.0565 33.8856C11.0649 33.8151 11.0871 33.7469 11.1218 33.685C11.1565 33.623 11.2031 33.5685 11.2589 33.5246C11.3716 33.4358 11.5149 33.3955 11.6573 33.4124L12.2665 33.4848C12.4033 33.5011 12.5288 33.569 12.6172 33.6747C12.7056 33.7803 12.7504 33.9157 12.7423 34.0533C12.7342 34.1908 12.6739 34.3201 12.5737 34.4146C12.4736 34.5092 12.341 34.562 12.2033 34.5621V34.5616Z" fill="white"/>
<path d="M7.59951 35.6757C7.47259 35.6759 7.34966 35.6314 7.25225 35.55C7.15484 35.4686 7.08917 35.3556 7.06674 35.2307C7.04431 35.1058 7.06655 34.9769 7.12956 34.8668C7.19258 34.7566 7.29235 34.6721 7.4114 34.6281L8.06005 34.3887C8.1266 34.3638 8.19739 34.3523 8.26838 34.3548C8.33937 34.3573 8.40917 34.3738 8.47379 34.4033C8.53842 34.4328 8.5966 34.4747 8.64502 34.5267C8.69344 34.5787 8.73115 34.6397 8.756 34.7062C8.78084 34.7728 8.79233 34.8436 8.78982 34.9146C8.78731 34.9855 8.77084 35.0553 8.74135 35.12C8.71186 35.1846 8.66993 35.2428 8.61795 35.2912C8.56598 35.3396 8.50498 35.3773 8.43843 35.4022L7.78978 35.6422C7.72888 35.6647 7.66443 35.676 7.59951 35.6757Z" fill="white"/>
</svg>
