<svg width="19" height="20" viewBox="0 0 19 20" fill="none" xmlns="http://www.w3.org/2000/svg">
<path fill-rule="evenodd" clip-rule="evenodd" d="M12.7158 14.9737H5.49585C5.08185 14.9737 4.74585 14.6377 4.74585 14.2237C4.74585 13.8097 5.08185 13.4737 5.49585 13.4737H12.7158C13.1298 13.4737 13.4658 13.8097 13.4658 14.2237C13.4658 14.6377 13.1298 14.9737 12.7158 14.9737Z" fill="#52D1C6"/>
<path fill-rule="evenodd" clip-rule="evenodd" d="M12.7158 10.7872H5.49585C5.08185 10.7872 4.74585 10.4512 4.74585 10.0372C4.74585 9.62317 5.08185 9.28717 5.49585 9.28717H12.7158C13.1298 9.28717 13.4658 9.62317 13.4658 10.0372C13.4658 10.4512 13.1298 10.7872 12.7158 10.7872Z" fill="#52D1C6"/>
<path fill-rule="evenodd" clip-rule="evenodd" d="M8.25048 6.61041H5.49548C5.08148 6.61041 4.74548 6.27441 4.74548 5.86041C4.74548 5.44641 5.08148 5.11041 5.49548 5.11041H8.25048C8.66448 5.11041 9.00048 5.44641 9.00048 5.86041C9.00048 6.27441 8.66448 6.61041 8.25048 6.61041Z" fill="#52D1C6"/>
<mask id="mask0_1_2002" style="mask-type:luminance" maskUnits="userSpaceOnUse" x="0" y="0" width="19" height="20">
<path fill-rule="evenodd" clip-rule="evenodd" d="M0 0.000183105H18.1647V19.91H0V0.000183105Z" fill="white"/>
</mask>
<g mask="url(#mask0_1_2002)">
<path fill-rule="evenodd" clip-rule="evenodd" d="M12.9088 1.5L5.21976 1.504C2.89176 1.518 1.49976 2.958 1.49976 5.357V14.553C1.49976 16.968 2.90476 18.41 5.25576 18.41L12.9448 18.407C15.2728 18.393 16.6648 16.951 16.6648 14.553V5.357C16.6648 2.942 15.2608 1.5 12.9088 1.5ZM5.25676 19.91C2.11276 19.91 -0.000244141 17.757 -0.000244141 14.553V5.357C-0.000244141 2.124 2.04676 0.023 5.21476 0.004L12.9078 0H12.9088C16.0528 0 18.1648 2.153 18.1648 5.357V14.553C18.1648 17.785 16.1178 19.887 12.9498 19.907L5.25676 19.91Z" fill="#52D1C6"/>
</g>
</svg>
