<svg width="20" height="20" viewBox="0 0 20 20" fill="none" xmlns="http://www.w3.org/2000/svg">
<path d="M9.57692 2.32416H6.46109C3.89859 2.32416 2.29192 4.13832 2.29192 6.70666V13.635C2.29192 16.2033 3.89109 18.0175 6.46109 18.0175H13.8144C16.3853 18.0175 17.9844 16.2033 17.9844 13.635V10.2783" stroke="#52D1C6" stroke-width="1.5" stroke-linecap="round" stroke-linejoin="round"/>
<path fill-rule="evenodd" clip-rule="evenodd" d="M7.35651 9.10074L13.584 2.87324C14.3598 2.09824 15.6173 2.09824 16.3932 2.87324L17.4073 3.88741C18.1832 4.66324 18.1832 5.92158 17.4073 6.69658L11.1498 12.9541C10.8107 13.2932 10.3507 13.4841 9.87067 13.4841H6.74901L6.82734 10.3341C6.83901 9.87074 7.02817 9.42908 7.35651 9.10074Z" stroke="#52D1C6" stroke-width="1.5" stroke-linecap="round" stroke-linejoin="round"/>
<path d="M12.6377 3.83542L16.4427 7.64042" stroke="#52D1C6" stroke-width="1.5" stroke-linecap="round" stroke-linejoin="round"/>
</svg>
