<svg width="41" height="43" viewBox="0 0 41 43" fill="none" xmlns="http://www.w3.org/2000/svg">
<g clip-path="url(#clip0_1_882)" filter="url(#filter0_d_1_882)">
<path d="M11.5925 8.61285C11.2152 8.61285 10.9089 8.9191 10.9089 9.29645C10.9089 9.67379 11.2152 9.98004 11.5925 9.98004C11.9699 9.98004 12.2761 9.67379 12.2761 9.29645C12.2761 8.9191 11.9699 8.61285 11.5925 8.61285Z" fill="white"/>
<path d="M17.7445 21.3954H15.6939V19.3447C15.6939 18.9672 15.3878 18.6611 15.0103 18.6611C14.6328 18.6611 14.3268 18.9672 14.3268 19.3447V21.3954H12.2761C11.8986 21.3954 11.5925 21.7015 11.5925 22.0789C11.5925 22.4563 11.8986 22.7625 12.2761 22.7625H14.3268V24.8131C14.3268 25.1906 14.6329 25.4967 15.0103 25.4967C15.3877 25.4967 15.6939 25.1906 15.6939 24.8131V22.7625H17.7445C18.122 22.7625 18.4281 22.4564 18.4281 22.0789C18.4281 21.7014 18.1221 21.3954 17.7445 21.3954Z" fill="white"/>
<path d="M36.1937 22.0106C34.6827 19.3934 31.3415 18.4977 28.7238 20.0091L25.9472 21.6122V15.6761C25.9472 14.9423 25.7045 14.214 25.2637 13.6255L21.8459 9.06855V7.12811C22.6415 6.84592 23.213 6.08617 23.213 5.19497V2.05064C23.2129 0.919912 22.293 0 21.1623 0H8.85819C7.72746 0 6.80748 0.919912 6.80748 2.05064V5.19504C6.80748 6.0861 7.37903 6.84599 8.1746 7.12817V9.06862L4.75656 13.6258C4.31592 14.2141 4.07324 14.9423 4.07324 15.6761V28.9146C4.07324 30.7992 5.60647 32.3323 7.491 32.3323H18.4765C20.0092 34.9015 23.3141 35.7613 25.9047 34.2655L34.1923 29.4805C36.7869 27.9822 37.7124 24.6421 36.1937 22.0106ZM8.1746 2.05064C8.1746 1.67371 8.48126 1.36705 8.85812 1.36705H21.1622C21.5391 1.36705 21.8458 1.67371 21.8458 2.05064V5.19504C21.8458 5.57197 21.5391 5.87856 21.1622 5.87856H8.85819C8.48126 5.87856 8.17467 5.5719 8.17467 5.19504V2.05064H8.1746ZM5.85059 14.4456L9.405 9.70655C9.49373 9.58829 9.54172 9.44433 9.54172 9.2964V7.24575H20.4787V8.61287H14.3267C13.9492 8.61287 13.6431 8.91898 13.6431 9.29646C13.6431 9.67395 13.9492 9.98006 14.3267 9.98006H20.8205L24.1696 14.4454C24.3885 14.7377 24.5245 15.0873 24.5655 15.4485H5.45492C5.49594 15.0873 5.6319 14.7376 5.85059 14.4456ZM7.49107 30.9652C6.36034 30.9652 5.44043 30.0453 5.44043 28.9146V28.2242H17.8596C17.6428 29.1105 17.6443 30.0571 17.8925 30.9653H7.49107V30.9652ZM18.3958 26.8639H5.44036V16.8155H24.58V22.4014L20.4361 24.7941C19.5722 25.2932 18.8738 26.0036 18.3958 26.8639ZM25.2212 33.0815C23.2595 34.2143 20.7528 33.5444 19.6193 31.5813C18.4803 29.5993 19.1705 27.1039 21.1199 25.9779L24.8302 23.8357L28.9316 30.9392L25.2212 33.0815ZM33.5087 28.2966L30.1156 30.2557L26.0141 23.152L29.4074 21.1931C31.3704 20.0599 33.8762 20.7309 35.0098 22.6941C36.1483 24.6671 35.4559 27.1722 33.5087 28.2966Z" fill="white"/>
</g>
<defs>
<filter id="filter0_d_1_882" x="-1" y="0" width="43" height="43" filterUnits="userSpaceOnUse" color-interpolation-filters="sRGB">
<feFlood flood-opacity="0" result="BackgroundImageFix"/>
<feColorMatrix in="SourceAlpha" type="matrix" values="0 0 0 0 0 0 0 0 0 0 0 0 0 0 0 0 0 0 127 0" result="hardAlpha"/>
<feOffset dy="4"/>
<feGaussianBlur stdDeviation="2"/>
<feComposite in2="hardAlpha" operator="out"/>
<feColorMatrix type="matrix" values="0 0 0 0 0 0 0 0 0 0 0 0 0 0 0 0 0 0 0.25 0"/>
<feBlend mode="normal" in2="BackgroundImageFix" result="effect1_dropShadow_1_882"/>
<feBlend mode="normal" in="SourceGraphic" in2="effect1_dropShadow_1_882" result="shape"/>
</filter>
<clipPath id="clip0_1_882">
<rect width="35" height="35" fill="white" transform="translate(3)"/>
</clipPath>
</defs>
</svg>
